<?xml version="1.0" encoding="UTF-8" standalone="no"?>
<!-- Created with Inkscape (http://www.inkscape.org/) -->

<svg
   width="72"
   height="24"
   viewBox="0 0 19.05 6.3500002"
   version="1.1"
   id="svg5"
   inkscape:version="1.1.1 (3bf5ae0d25, 2021-09-20)"
   sodipodi:docname="logotipo.svg"
   inkscape:export-filename="/home/josneth/Documents/My Projects/Tacake/logo-1080.png"
   inkscape:export-xdpi="730.37244"
   inkscape:export-ydpi="730.37244"
   xmlns:inkscape="http://www.inkscape.org/namespaces/inkscape"
   xmlns:sodipodi="http://sodipodi.sourceforge.net/DTD/sodipodi-0.dtd"
   xmlns="http://www.w3.org/2000/svg"
   xmlns:svg="http://www.w3.org/2000/svg">
  <sodipodi:namedview
     id="namedview7"
     pagecolor="#ffffff"
     bordercolor="#666666"
     borderopacity="1.0"
     inkscape:pageshadow="2"
     inkscape:pageopacity="0.0"
     inkscape:pagecheckerboard="0"
     inkscape:document-units="mm"
     showgrid="true"
     units="px"
     height="24px"
     inkscape:showpageshadow="false"
     inkscape:snap-bbox="true"
     inkscape:snap-bbox-edge-midpoints="true"
     inkscape:bbox-nodes="false"
     inkscape:snap-page="true"
     showguides="false"
     inkscape:zoom="2.9576318"
     inkscape:cx="40.911111"
     inkscape:cy="-6.9312212"
     inkscape:window-width="1024"
     inkscape:window-height="568"
     inkscape:window-x="0"
     inkscape:window-y="0"
     inkscape:window-maximized="1"
     inkscape:current-layer="layer1"
     width="300px">
    <inkscape:grid
       type="xygrid"
       id="grid888"
       empspacing="4" />
  </sodipodi:namedview>
  <defs
     id="defs2" />
  <g
     inkscape:label="Layer 1"
     inkscape:groupmode="layer"
     id="layer1">
    <g
       style="fill:none;stroke:#ff6363;stroke-opacity:1"
       id="g1093"
       transform="matrix(0.22891342,0,0,0.22891342,0.43362788,0.42803896)">
      <path
         d="m 3.00977,15.71 c 0,4.49 1.8,6.29 6.29,6.29 h 5.39003 c 4.49,0 6.29,-1.8 6.29,-6.29 v -4.49"
         stroke="#292d32"
         stroke-width="1.5"
         stroke-linecap="round"
         stroke-linejoin="round"
         id="path1072"
         style="stroke:#ff6363;stroke-opacity:1" />
      <path
         d="m 12.0005,12 c 1.83,0 3.18,-1.49 3,-3.32 L 14.3405,2 H 9.67048 l -0.67,6.68 C 8.82048,10.51 10.1705,12 12.0005,12 Z"
         stroke="#292d32"
         stroke-width="1.5"
         stroke-linecap="round"
         stroke-linejoin="round"
         id="path1074"
         style="stroke:#ff6363;stroke-opacity:1" />
      <path
         d="m 18.3108,12 c 2.02,0 3.5,-1.64 3.3,-3.65 L 21.3308,5.6 C 20.9708,3 19.9708,2 17.3508,2 h -3.05 l 0.7,7.01 c 0.17,1.65 1.66,2.99 3.31,2.99 z"
         stroke="#292d32"
         stroke-width="1.5"
         stroke-linecap="round"
         stroke-linejoin="round"
         id="path1076"
         style="stroke:#ff6363;stroke-opacity:1" />
      <path
         d="m 5.64037,12 c 1.65,0 3.14,-1.34 3.3,-2.99 l 0.22,-2.21 0.48,-4.8 h -3.05 c -2.62,0 -3.62,1 -3.98,3.6 l -0.27,2.75 c -0.2,2.01 1.28,3.65 3.3,3.65 z"
         stroke="#292d32"
         stroke-width="1.5"
         stroke-linecap="round"
         stroke-linejoin="round"
         id="path1078"
         style="stroke:#ff6363;stroke-opacity:1" />
      <path
         d="m 12,17 c -1.67,0 -2.5,0.83 -2.5,2.5 V 22 h 5 V 19.5 C 14.5,17.83 13.67,17 12,17 Z"
         stroke="#292d32"
         stroke-width="1.5"
         stroke-linecap="round"
         stroke-linejoin="round"
         id="path1080"
         style="stroke:#ff6363;stroke-opacity:1" />
    </g>
    <text
       xml:space="preserve"
       style="font-weight:bold;font-size:4.23333px;line-height:1.75;font-family:Lobster;-inkscape-font-specification:'Lobster Bold';word-spacing:0px;fill:#ff6363;fill-opacity:1;stroke-width:0.264583"
       x="6.3246002"
       y="4.7476821"
       id="text2106"><tspan
         sodipodi:role="line"
         id="tspan2104"
         style="fill:#ff6363;fill-opacity:1;stroke-width:0.264583"
         x="6.3246002"
         y="4.7476821">Tacake</tspan></text>
  </g>
</svg>
